# xmcd
#
# Track frame offsets:
#	150
#	14117
#	25872
#	36306
#	51533
#	82087
#	116816
#	135055
#	151325
#	174174
#	199204
#	219719
#	272279
#	301455
#
# Disc length: 4389 seconds
#
# Revision: 0
# Processed by: cddbd v1.5.2PL0 Copyright (c) Steve Scherf et al.
# Submitted via: EasyCDDAExtractor 10.0.5.1
#
DISCID=c211230e
DTITLE=Radics Bela - Csodalatos utazas
DYEAR=1900
DGENRE=Blues
TTITLE0=Ket barna szem (Sakk-Matt)
TTITLE1=Fire (Sakk-Matt)
TTITLE2=Swlabr (Sakk-Matt)
TTITLE3=Zold csillag (Tuzkerek)
TTITLE4=Hey Joe (Tuzkerek)
TTITLE5=Red House (Tuzkerek)
TTITLE6=Ezer merfoldnyi ut (Taurus Ex T 25-75-82)
TTITLE7=Ki arcan csillagot visel (Taurus Ex T 25-75-82)
TTITLE8=Gonosz asszony (Alligator)
TTITLE9=Csodalatos utazas (Alligator)
TTITLE10=Johnny B. Good (Tuzkerek)
TTITLE11=A bika jegyeben (Tuzkerek)
TTITLE12=Guitar boogie (Tuzkerek)
TTITLE13=Pictures
EXTD=
EXTT0=
EXTT1=
EXTT2=
EXTT3=
EXTT4=
EXTT5=
EXTT6=
EXTT7=
EXTT8=
EXTT9=
EXTT10=
EXTT11=
EXTT12=
EXTT13=
PLAYORDER=
